<svg width="600" height="420" viewBox="0 0 600 420" fill="none" xmlns="http://www.w3.org/2000/svg">
  <defs>
    <linearGradient id="bg" x1="54" y1="18" x2="546" y2="402" gradientUnits="userSpaceOnUse">
      <stop stop-color="#0B1220"/>
      <stop offset="1" stop-color="#07111F"/>
    </linearGradient>
    <linearGradient id="pink" x1="166" y1="84" x2="360" y2="280" gradientUnits="userSpaceOnUse">
      <stop stop-color="#EA1885"/>
      <stop offset="1" stop-color="#B81268"/>
    </linearGradient>
    <linearGradient id="gold" x1="202" y1="148" x2="414" y2="330" gradientUnits="userSpaceOnUse">
      <stop stop-color="#D8B469"/>
      <stop offset="1" stop-color="#A68042"/>
    </linearGradient>
    <filter id="shadow" x="0" y="0" width="600" height="420" filterUnits="userSpaceOnUse" color-interpolation-filters="sRGB">
      <feDropShadow dx="0" dy="24" stdDeviation="25" flood-color="#000000" flood-opacity="0.42"/>
    </filter>
  </defs>
  <rect x="18" y="18" width="564" height="384" rx="34" fill="url(#bg)" stroke="rgba(255,255,255,0.10)"/>
  <circle cx="118" cy="90" r="62" fill="#EA1885" fill-opacity="0.10"/>
  <circle cx="492" cy="320" r="78" fill="#D8B469" fill-opacity="0.10"/>
  <g filter="url(#shadow)">
    <path d="M252 92H304C336 92 361 116 361 148C361 175 342 195 317 200L366 271H314L270 205H252V271H210V92H252Z" fill="url(#pink)"/>
    <path d="M332 132C379 132 415 165 415 208C415 246 387 277 348 284L394 351H339L296 289H278V351H235V132H332Z" fill="url(#gold)"/>
    <path d="M205 250C245 223 275 208 306 208C333 208 356 217 381 236" stroke="rgba(255,255,255,0.76)" stroke-width="5" stroke-linecap="round"/>
    <path d="M205 266C247 237 279 225 313 225C344 225 371 234 399 257" stroke="rgba(255,255,255,0.18)" stroke-width="3" stroke-linecap="round"/>
  </g>
  <text x="300" y="382" text-anchor="middle" fill="#F1F7FF" font-family="Arial, sans-serif" font-size="24" font-weight="700">Jai shree Fashion CRM</text>
</svg>
